
        <svg xmlns="http://www.w3.org/2000/svg" xmlns:xlink="http://www.w3.org/1999/xlink" version="1.1" width="3176.9024595318187" height="483.2809895161013" viewBox="0 0 3176.9024595318187 483.2809895161013">
			
			<g transform="scale(8.845122976590947) translate(10, 10)">
				<defs id="SvgjsDefs11725"/><g id="SvgjsG11726" featureKey="symbolFeature-0" transform="matrix(0.059383049607276917,0,0,0.059383049607276917,0,-2.719743553762812)" fill="#000"><g xmlns="http://www.w3.org/2000/svg">    <path d="M587.1,45.8c-52.2,0-103.5,13.8-148.2,40.5c-43.8-25.9-95.1-40.5-147.2-40.5C130.8,45.8,0,176.5,0,337.4         c0,160.9,130.8,291.7,291.7,291.7c52,0,103.1-13.7,147.7-40.2c44.6,26.5,95.7,40.2,147.7,40.2c160.9,0,291.7-130.8,291.7-291.7         C878.8,176.5,748,45.8,587.1,45.8z M439.4,559.9c-46.1-30.9-80.6-74-100.4-123.3l113.7,113.7C448.4,553.6,443.9,556.8,439.4,559.9z          M473.4,532.7L323.8,383.2c-2.6-15-3.9-30.3-3.9-45.8c0-3.6,0.1-7.2,0.2-10.8l178.4,179.1C490.8,515.3,482.4,524.3,473.4,532.7z          M514.7,483.7L323.8,292.1c2.5-14.5,6.1-28.6,10.9-42.3l199.2,199.2C528.3,461,521.9,472.6,514.7,483.7z M544.6,421.5L345.8,222.6         c5.5-11.5,11.8-22.6,18.9-33.3l190.1,190.1C552.5,393.8,549.1,407.9,544.6,421.5z M380.9,167.4c7.9-9.6,16.5-18.7,25.8-27.3         l146.6,146.6c3.1,16.5,4.7,33.4,4.7,50.7c0,2.3,0,4.6-0.1,7L380.9,167.4z M427.6,122.8c3.7-2.8,7.6-5.5,11.5-8.2         c44.6,29.3,78.1,70.3,98,117.6L427.6,122.8z M24.5,337.4C24.5,189.7,144,70.2,291.7,70.2c44.2,0,86.6,10.3,125.1,31         c-76.2,54.6-120.4,142.1-120.4,236.2S341.6,519,416.8,573.6c-38.6,20.7-81.9,31-125.1,31C144,604.7,24.5,485.2,24.5,337.4z          M587.1,604.7c-44.2,0-86.6-10.3-125.1-31c76.2-54.6,120.4-142.1,120.4-236.2S538.2,155.8,462,101.3c38.6-20.7,80.9-31,125.1-31         c147.7,0,267.2,119.5,267.2,267.2C854.4,485.2,734.9,604.7,587.1,604.7z"/></g></g><g id="SvgjsG11727" featureKey="nameLeftFeature-0" transform="matrix(1.5130020380020142,0,0,1.5130020380020142,70.46127665744018,-2.565213165943378)" fill="#000"><path d="M7.9831 20.11864 c3.8305 0 6.9492 -3.0337 6.9492 -6.8981 c0 -3.8475 -3.1186 -6.8983 -6.9492 -6.8983 c-3.8475 0 -6.9661 3.0508 -6.9661 6.8983 c0 3.8644 3.1186 6.8981 6.9661 6.8981 z M7.9831 18.8307 c-3.0847 0 -5.6441 -2.5085 -5.6441 -5.6102 s2.5593 -5.6102 5.6441 -5.6102 c3.0846 0 5.61 2.5085 5.61 5.6102 s-2.5254 5.6102 -5.61 5.6102 z M28.627152542372883 6.441000000000001 c0.11864 0 0.20356 0.067631 0.20356 0.18627 l0 13.186 c0 0.11881 -0.084746 0.18644 -0.20339 0.18644 l-0.35593 0 c-0.25441 0 -0.49169 -0.16933 -0.81373 -0.52525 l-8.9153 -10.525 l0 10.831 c0 0.13559 -0.084746 0.22017 -0.22034 0.22017 l-0.88136 0 c-0.15254 0 -0.22034 -0.08458 -0.22034 -0.22017 l0 -13.136 c0 -0.11864 0.067797 -0.20339 0.20339 -0.20339 l0.55932 0 c0.11864 0 0.20339 0.050847 0.32203 0.18644 l9.2034 10.932 l0 -10.932 c0 -0.11864 0.067797 -0.18644 0.18644 -0.18644 l0.9322 0 z M42.76269491525424 17.729 c0.11864 0.08458 0.084746 0.22017 -0.067797 0.37271 c-1.2544 1.2542 -2.8814 2.0168 -4.8983 2.0168 c-3.8136 0 -6.9322 -3.0168 -6.9322 -6.8812 c0 -3.8475 3.1186 -6.9153 6.9322 -6.9153 c1.9322 0 3.661 0.74576 4.9322 2.0169 c0.15254 0.15254 0.16949 0.27119 0.067797 0.35593 l-0.71186 0.59322 c-0.11864 0.10169 -0.22034 0.10169 -0.33898 -0.016949 c-0.71186 -0.74559 -2.1186 -1.6608 -3.8475 -1.6608 c-3.678 0 -5.7119 2.9831 -5.7119 5.6271 c0 2.678 2.0339 5.5932 5.7119 5.5932 c1.7288 0 3.0508 -0.88136 3.7966 -1.6271 c0.13559 -0.13559 0.23729 -0.16949 0.35593 -0.067797 z M55.88106779661017 6.441000000000001 c0.15254 0 0.23729 0.067963 0.23729 0.22051 l0 13.119 c0 0.13559 -0.067797 0.22017 -0.20339 0.22017 l-0.6778 0 c-0.30508 0 -0.44068 -0.18644 -0.44068 -0.45763 l0 -5.5593 l-8.5593 0 l0 5.7797 c0 0.15254 -0.067797 0.23712 -0.22034 0.23712 l-0.86441 0 c-0.16966 0 -0.23746 -0.08458 -0.23746 -0.23712 l0 -13.102 c0 -0.15254 0.067797 -0.22034 0.22034 -0.22034 l0.88136 0 c0.13559 0 0.22034 0.067797 0.22034 0.22034 l0 6 l8.5593 0 l0 -6 c0 -0.15254 0.067797 -0.22034 0.20339 -0.22034 l0.88136 0 z M71.45783050847457 19.77983 c0.067797 0.13559 0.034229 0.22017 -0.11831 0.22017 l-1.0339 0 c-0.11864 0 -0.18644 -0.050847 -0.23729 -0.15254 l-1.1864 -2.5254 l-8.1864 0 l-1.1864 2.5254 c-0.050847 0.10169 -0.11848 0.15254 -0.22034 0.15254 l-1.0678 0 c-0.11864 0 -0.18644 -0.08458 -0.11864 -0.22017 l6.3558 -13.271 c0.067797 -0.11864 0.11864 -0.15254 0.20322 -0.15254 l0.23745 0 c0.084746 0 0.15254 0.033898 0.20339 0.15254 z M61.27133050847458 16.1019 l7.0339 0 l-3.5254 -7.4576 z M74.61019152542373 6.441000000000001 l-0.86441 0 c-0.15254 0 -0.22034 0.067797 -0.22034 0.22034 l0 13.119 c0 0.13559 0.067797 0.22017 0.22034 0.22017 l0.88136 0 c0.11864 0 0.20339 -0.08458 0.20339 -0.22017 l0 -13.119 c0 -0.15254 -0.084746 -0.22034 -0.22034 -0.22034 z M88.86444067796609 6.441000000000001 c0.11864 0 0.20356 0.067631 0.20356 0.18627 l0 13.186 c0 0.11881 -0.084746 0.18644 -0.20339 0.18644 l-0.35593 0 c-0.25441 0 -0.49169 -0.16933 -0.81373 -0.52525 l-8.9153 -10.525 l0 10.831 c0 0.13559 -0.084746 0.22017 -0.22034 0.22017 l-0.88136 0 c-0.15254 0 -0.22034 -0.08458 -0.22034 -0.22017 l0 -13.136 c0 -0.11864 0.067797 -0.20339 0.20339 -0.20339 l0.55932 0 c0.11864 0 0.20339 0.050847 0.32203 0.18644 l9.2034 10.932 l0 -10.932 c0 -0.11864 0.067797 -0.18644 0.18644 -0.18644 l0.9322 0 z"/></g><g id="SvgjsG11728" featureKey="nameRightFeature-0" transform="matrix(1.5130152702331543,0,0,1.5130152702331543,212.20512505199198,-2.5654955389503797)" fill="#000"><path d="M6.61 6.441000000000001 c2.8136 0 4.661 2.5424 4.661 4.6271 c0 2.2373 -1.8475 4.661 -4.661 4.661 l-3 0 l0 3.9322 c0 0.20339 -0.13559 0.33881 -0.32203 0.33881 l-1.7966 0 c-0.16949 0 -0.30508 -0.13543 -0.30508 -0.33881 l0 -12.898 c0 -0.16949 0.13559 -0.32203 0.32203 -0.32203 l5.1017 0 z M6.3558 13.39 c1.5932 0 2.4915 -1.1697 2.4915 -2.3222 c0 -1.1354 -0.89831 -2.288 -2.4915 -2.288 l-2.7458 0 l0 4.6102 l2.7458 0 z M23.253661016949152 19.61017 c0.13559 0.20339 0.034064 0.38983 -0.23712 0.38983 l-1.5763 0 c-0.47458 0 -0.88136 -0.44068 -1.0339 -0.69492 l-2.339 -3.5763 l-2.8475 0 l0 3.9322 c0 0.20339 -0.13559 0.33881 -0.32203 0.33881 l-1.7966 0 c-0.16949 0 -0.30508 -0.13543 -0.30508 -0.33881 l0 -12.898 c0 -0.16949 0.13559 -0.32203 0.32203 -0.32203 l5.4068 0 c2.7797 0 4.4915 2.5763 4.4915 4.6441 c0 1.6442 -0.98305 3.4576 -2.661 4.2373 z M15.220461016949152 8.78 l0.00033103 4.6102 l2.9659 0 c1.6102 0 2.3898 -1.1695 2.3898 -2.3559 c0 -1.1356 -0.79661 -2.2542 -2.3902 -2.2542 l-2.9659 0 z M31.948999999999998 20.11864 c3.7966 0 6.8983 -3.0507 6.8983 -6.9151 c0 -3.8305 -3.1017 -6.8814 -6.8983 -6.8814 c-3.8305 0 -6.9322 3.0508 -6.9322 6.8814 c0 3.8644 3.1017 6.9151 6.9322 6.9151 z M31.948999999999998 17.7798 c-2.4407 0 -4.5085 -2.1017 -4.5085 -4.5763 c0 -2.4576 2.0678 -4.5422 4.5085 -4.5422 s4.4915 2.0846 4.4915 4.5422 c0 2.4746 -2.0508 4.5763 -4.4915 4.5763 z M56.322406779661016 6.441000000000001 c0.18644 0 0.33915 0.15238 0.33915 0.32186 l0 12.898 c0 0.16949 -0.13559 0.33881 -0.3222 0.33881 l-1.7456 0 c-0.20339 0 -0.33898 -0.15238 -0.33898 -0.33881 l0 -8.2203 l-4.9492 7.8305 c-0.10186 0.16949 -0.20356 0.23729 -0.3561 0.23729 l-0.10169 0 c-0.15254 0 -0.25424 -0.067797 -0.35593 -0.23729 l-4.9322 -7.8475 l0 8.2375 c0 0.16949 -0.15254 0.33881 -0.33898 0.33881 l-1.7458 0 c-0.18644 0 -0.33898 -0.15238 -0.33898 -0.33881 l0 -12.898 c0 -0.16949 0.13559 -0.32203 0.33898 -0.32203 l1.4576 0 c0.16949 0 0.28814 0.067797 0.38983 0.22034 l5.5763 8.8134 l5.5932 -8.8134 c0.084746 -0.15254 0.20339 -0.22034 0.38983 -0.22034 l1.4407 0 z M61.28800338983051 6.441000000000001 l-1.6778 0 c-0.18644 0 -0.32203 0.15254 -0.32203 0.32203 l0 12.898 c0 0.18644 0.15254 0.33881 0.33898 0.33881 l1.678 0 c0.16933 0 0.32186 -0.16933 0.32186 -0.33881 l0 -12.898 c0 -0.16949 -0.16949 -0.32203 -0.33898 -0.32203 z M63.847460847457626 17.6442 l0.96576 -1.1188 c0.20339 -0.23746 0.45763 -0.23746 0.64407 -0.10186 c0.55932 0.47458 1.5593 1.3729 2.8136 1.3729 c1.2203 0 2.2712 -0.4578 2.2712 -1.5086 c0 -1.1017 -1.1356 -1.4237 -2.3051 -1.8983 c-2.4237 -1 -4.1864 -2.0339 -4.1864 -4.2373 c0 -1.7288 1.2712 -3.8136 4.339 -3.8136 c2.0847 0 3.5934 1.1866 4.0341 1.6273 c0.18644 0.18644 0.28814 0.42373 0.11864 0.62712 l-0.84746 1.1186 c-0.16966 0.22034 -0.40678 0.32203 -0.67797 0.13559 c-0.54237 -0.42373 -1.4237 -1.2034 -2.6102 -1.2034 c-1.2034 0 -1.9492 0.69492 -1.9492 1.5085 c0 0.89831 0.77966 1.339 2.0508 1.8475 c2.2203 0.93254 4.4407 1.9325 4.4407 4.3224 c0 1.9831 -1.9659 3.7964 -4.6439 3.7964 c-2.4237 0 -3.9322 -1.5422 -4.3559 -1.949 c-0.15254 -0.13559 -0.30508 -0.32203 -0.10169 -0.52542 z M83.57626440677966 8.78 l-6.1697 -0.00033103 l0 3.4068 l3.322 0 c0.18644 0 0.33898 0.15254 0.33898 0.33915 l0 1.6778 c0 0.20339 -0.13559 0.3222 -0.33898 0.3222 l-3.322 0 l0 3.1356 l6.1695 0 c0.18644 0 0.33881 0.15238 0.33881 0.33881 l0 1.6613 c0 0.18644 -0.15238 0.33881 -0.33881 0.33881 l-8.2542 0 c-0.18644 0 -0.33898 -0.15238 -0.33898 -0.33881 l0 -12.898 c0 -0.16949 0.13559 -0.32203 0.3222 -0.32203 l8.2712 0 c0.18644 0 0.33881 0.15254 0.33881 0.32203 l0 1.6949 c0 0.18644 -0.15238 0.32203 -0.33881 0.32203 z"/></g>
			</g>
		</svg>
	