<?xml version="1.0" encoding="utf-8"?>
<!-- Generator: Adobe Illustrator 24.1.1, SVG Export Plug-In . SVG Version: 6.00 Build 0)  -->
<svg version="1.1" id="Layer_1" xmlns="http://www.w3.org/2000/svg" xmlns:xlink="http://www.w3.org/1999/xlink" x="0px" y="0px"
	 viewBox="0 0 512 512" style="enable-background:new 0 0 512 512;" xml:space="preserve">
<style type="text/css">
	.st0{fill:#fff;}
	.st1{fill:#fff;}
	.st2{fill:#fff;}
	.st3{fill:#fff;}
</style>
<g id="XMLID_1_">
	<path id="XMLID_3_" class="st0" d="M394.6,81.1L161.5,314.3l18.1,18.1l115,115c9.5-30.7,12.6-63,7.1-93.7L445,210.3
		c22.1,0,45.7-4.7,67-11.8l-99.2-99.2L394.6,81.1z"/>
	<polygon id="XMLID_4_" class="st1" points="161.5,314.3 125.2,350.5 53.6,422.2 18.1,458.4 0,512 36.2,475.8 143.4,368.6 
		179.6,332.4 	"/>
	<polygon id="XMLID_5_" class="st2" points="179.6,332.4 143.4,368.6 71.7,440.3 36.2,475.8 0,512 53.6,493.9 89.8,458.4 
		161.5,386.8 197.7,350.5 	"/>
	<path id="XMLID_6_" class="st3" d="M313.5,0c-7.1,21.3-12.6,44.9-11.8,67L157.5,210.3c-29.9-5.5-63-2.4-93.7,7.1l115,115L412,99.2
		L313.5,0z"/>
</g>
</svg>
